<svg xmlns="http://www.w3.org/2000/svg" x="0px" y="0px"
width="30" height="30"
viewBox="0 0 172 172"
style=" fill:#fa314a;"><g transform="translate(4.73,4.73) scale(0.945,0.945)"><g fill="none" fill-rule="nonzero" stroke="none" stroke-width="none" stroke-linecap="butt" stroke-linejoin="none" stroke-miterlimit="10" stroke-dasharray="" stroke-dashoffset="0" font-family="none" font-weight="none" font-size="none" text-anchor="none" style="mix-blend-mode: normal"><g id="Layer_1 1" fill="#5fa3d7" stroke="#cccccc" stroke-width="10" stroke-linejoin="round"><path d="M157.18519,131.07725c0,12.66493 -10.2684,22.93333 -22.93333,22.93333h-63.06667c-9.50013,0 -17.2,-7.69987 -17.2,-17.2c0,-9.50013 7.69987,-17.2 17.2,-17.2c0,-9.50013 7.69987,-17.2 17.2,-17.2c0.52173,0 1.02053,0.10893 1.5308,0.1548c3.51453,-10.0792 12.99747,-17.3548 24.2692,-17.3548c13.52493,0 24.48707,10.4404 25.58787,23.67867c9.98173,2.48253 17.41213,11.438 17.41213,22.188z"></path></g><g fill="#191057" stroke="#cccccc" stroke-width="10" stroke-linejoin="round" opacity="0" visibility="hidden"><path d="M149.06667,74.53333c-0.01929,0.66133 -0.0529,1.32216 -0.10078,1.98203c13.77909,4.82354 23.01284,17.81902 23.03411,32.41797c0,18.9986 -15.4014,34.4 -34.4,34.4h-103.2c-18.9986,0 -34.4,-15.4014 -34.4,-34.4c0.02088,-14.67338 9.34698,-27.71823 23.22448,-32.48516c1.9105,-14.215 14.03273,-24.83032 28.37552,-24.84817c3.69361,0.00489 7.35147,0.72353 10.77239,2.11641c7.82206,-15.35735 23.59297,-25.03358 40.82761,-25.04974c25.33146,0 45.86667,20.53521 45.86667,45.86667z"></path></g><g fill="#191057" stroke="#cccccc" stroke-width="10" stroke-linejoin="round"><path d="M149.06667,74.53333c-0.01929,0.66133 -0.0529,1.32216 -0.10078,1.98203c13.77909,4.82354 23.01284,17.81902 23.03411,32.41797c0,5.75289 -1.41218,11.17594 -3.90879,15.94143c-1.93037,-10.55735 -8.71204,-19.57991 -18.26189,-24.40778c-4.5236,-15.65773 -18.74227,-26.72307 -35.64413,-26.72307c-13.072,0 -24.9916,6.90867 -31.6652,17.802c-9.77533,2.04107 -17.73893,9.07587 -21.09293,18.30653c-11.01947,4.00187 -18.90853,14.57413 -18.90853,26.95813c0,2.24303 0.25895,4.42673 0.74853,6.52275h-8.86705c-18.9986,0 -34.4,-15.4014 -34.4,-34.4c0.02088,-14.67338 9.34698,-27.71823 23.22448,-32.48516c1.9105,-14.215 14.03273,-24.83032 28.37552,-24.84817c3.69361,0.00489 7.35147,0.72353 10.77239,2.11641c7.82206,-15.35735 23.59297,-25.03358 40.82761,-25.04974c25.33146,0 45.86667,20.53521 45.86667,45.86667z"></path></g><path d="M0,172v-172h172v172z" fill="none" stroke="none" stroke-width="1" stroke-linejoin="miter"></path><g id="original-icon" fill="#191057" stroke="none" stroke-width="1" stroke-linejoin="miter" opacity="0" visibility="hidden"><path d="M103.2,28.66667c-17.23464,0.01616 -33.00554,9.69239 -40.82761,25.04974c-3.42092,-1.39288 -7.07878,-2.11152 -10.77239,-2.11641c-14.3428,0.01786 -26.46502,10.63318 -28.37552,24.84817c-13.8775,4.76693 -23.2036,17.81178 -23.22448,32.48516c0,18.9986 15.4014,34.4 34.4,34.4h103.2c18.9986,0 34.4,-15.4014 34.4,-34.4c-0.02127,-14.59895 -9.25503,-27.59443 -23.03411,-32.41797c0.04788,-0.65987 0.08149,-1.3207 0.10078,-1.98203c0,-25.33146 -20.53521,-45.86667 -45.86667,-45.86667z"></path></g><g id="subtracted-icon" fill="#191057" stroke="none" stroke-width="1" stroke-linejoin="miter"><path d="M149.06667,74.53333c-0.01929,0.66133 -0.0529,1.32216 -0.10078,1.98203c13.77909,4.82354 23.01284,17.81902 23.03411,32.41797c0,5.75289 -1.41218,11.17594 -3.90879,15.94143c-1.93037,-10.55735 -8.71204,-19.57991 -18.26189,-24.40778c-4.5236,-15.65773 -18.74227,-26.72307 -35.64413,-26.72307c-13.072,0 -24.9916,6.90867 -31.6652,17.802c-9.77533,2.04107 -17.73893,9.07587 -21.09293,18.30653c-11.01947,4.00187 -18.90853,14.57413 -18.90853,26.95813c0,2.24303 0.25895,4.42673 0.74853,6.52275h-8.86705c-18.9986,0 -34.4,-15.4014 -34.4,-34.4c0.02088,-14.67338 9.34698,-27.71823 23.22448,-32.48516c1.9105,-14.215 14.03273,-24.83032 28.37552,-24.84817c3.69361,0.00489 7.35147,0.72353 10.77239,2.11641c7.82206,-15.35735 23.59297,-25.03358 40.82761,-25.04974c25.33146,0 45.86667,20.53521 45.86667,45.86667z"></path></g><path d="" fill="none" stroke="none" stroke-width="1" stroke-linejoin="miter"></path><path d="" fill="none" stroke="none" stroke-width="1" stroke-linejoin="miter"></path><path d="" fill="none" stroke="none" stroke-width="1" stroke-linejoin="miter"></path><path d="" fill="none" stroke="none" stroke-width="1" stroke-linejoin="miter"></path><path d="" fill="none" stroke="none" stroke-width="1" stroke-linejoin="miter"></path><path d="" fill="none" stroke="none" stroke-width="1" stroke-linejoin="miter"></path><path d="" fill="none" stroke="none" stroke-width="1" stroke-linejoin="miter"></path><path d="" fill="none" stroke="none" stroke-width="1" stroke-linejoin="miter"></path><path d="" fill="none" stroke="none" stroke-width="1" stroke-linejoin="miter"></path><path d="" fill="none" stroke="none" stroke-width="1" stroke-linejoin="miter"></path><path d="" fill="none" stroke="none" stroke-width="1" stroke-linejoin="miter"></path><path d="" fill="none" stroke="none" stroke-width="1" stroke-linejoin="miter"></path><path d="" fill="none" stroke="none" stroke-width="1" stroke-linejoin="miter"></path><path d="" fill="none" stroke="none" stroke-width="1" stroke-linejoin="miter"></path><path d="" fill="none" stroke="none" stroke-width="1" stroke-linejoin="miter"></path><path d="" fill="none" stroke="none" stroke-width="1" stroke-linejoin="miter"></path><path d="" fill="none" stroke="none" stroke-width="1" stroke-linejoin="miter"></path><path d="" fill="none" stroke="none" stroke-width="1" stroke-linejoin="miter"></path><path d="" fill="none" stroke="none" stroke-width="1" stroke-linejoin="miter"></path><path d="" fill="none" stroke="none" stroke-width="1" stroke-linejoin="miter"></path><path d="" fill="none" stroke="none" stroke-width="1" stroke-linejoin="miter"></path><path d="" fill="none" stroke="none" stroke-width="1" stroke-linejoin="miter"></path><path d="" fill="none" stroke="none" stroke-width="1" stroke-linejoin="miter"></path><path d="" fill="none" stroke="none" stroke-width="1" stroke-linejoin="miter"></path><path d="" fill="none" stroke="none" stroke-width="1" stroke-linejoin="miter"></path><g stroke="none" stroke-width="1" stroke-linejoin="miter"><g id="Layer_1" fill="#5fa3d7"><path d="M157.18519,131.07725c0,12.66493 -10.2684,22.93333 -22.93333,22.93333h-63.06667c-9.50013,0 -17.2,-7.69987 -17.2,-17.2c0,-9.50013 7.69987,-17.2 17.2,-17.2c0,-9.50013 7.69987,-17.2 17.2,-17.2c0.52173,0 1.02053,0.10893 1.5308,0.1548c3.51453,-10.0792 12.99747,-17.3548 24.2692,-17.3548c13.52493,0 24.48707,10.4404 25.58787,23.67867c9.98173,2.48253 17.41213,11.438 17.41213,22.188z"></path></g><g id="Layer_1" fill="#000000" opacity="0"><path d="M149.82932,100.46698c-4.5236,-15.65773 -18.74227,-26.72307 -35.64413,-26.72307c-13.072,0 -24.9916,6.90867 -31.6652,17.802c-9.77533,2.04107 -17.73893,9.07587 -21.09293,18.30653c-11.01947,4.00187 -18.90853,14.57413 -18.90853,26.95813c0,15.8068 12.85987,28.66667 28.66667,28.66667h63.06667c18.96587,0 34.4,-15.43413 34.4,-34.4c0,-13.158 -7.4476,-24.85973 -18.82253,-30.61027z"></path></g></g><path d="M53.98519,154.01058v-68.8h103.2v68.8z" id="overlay-drag" fill="#ff0000" stroke="none" stroke-width="1" stroke-linejoin="miter" opacity="0"></path><path d="" fill="none" stroke="none" stroke-width="1" stroke-linejoin="miter"></path></g></g></svg>